<svg width="30" height="21" viewBox="0 0 30 21" fill="none" xmlns="http://www.w3.org/2000/svg">
<path d="M7.73572 20.1679C12.3277 20.1679 14.9597 16.0799 14.9597 10.3959C14.9597 4.09595 11.9077 0.595947 7.73572 0.595947C3.17172 0.595947 0.511719 4.68395 0.511719 10.3959C0.511719 16.6679 3.56372 20.1679 7.73572 20.1679ZM7.73572 17.9839C4.90772 17.9839 2.91972 15.2679 2.91972 10.3959C2.91972 5.77595 4.68372 2.77995 7.73572 2.77995C10.5917 2.77995 12.5517 5.49595 12.5517 10.3959C12.5517 14.9879 10.8157 17.9839 7.73572 17.9839Z" fill="#1E285A"/>
<path d="M17.4263 18.3759L17.4543 19.9999H29.5503V17.8439H21.0383L21.0103 17.7599L26.0223 12.7199C28.4023 10.3119 29.3263 8.43595 29.3263 6.27995C29.3263 2.72395 26.5263 0.623947 23.4463 0.623947C20.4503 0.623947 18.5183 2.13595 17.4543 4.26395L19.1903 5.46795C20.0863 3.73195 21.4863 2.83595 23.3063 2.83595C25.4343 2.83595 26.9183 4.40395 26.9183 6.53195C26.9183 8.43595 25.6303 9.97595 24.0063 11.6559L17.4263 18.3759Z" fill="#1E285A"/>
</svg>
