<svg width="30" height="21" viewBox="0 0 30 21" fill="none" xmlns="http://www.w3.org/2000/svg">
<path d="M7.73572 20.1679C5.58905 20.1679 3.84372 19.3093 2.49972 17.5919C1.17439 15.8559 0.511719 13.4573 0.511719 10.3959C0.511719 7.48395 1.15572 5.12261 2.44372 3.31195C3.73172 1.50128 5.49572 0.595947 7.73572 0.595947C9.88239 0.595947 11.6184 1.46395 12.9437 3.19995C14.2877 4.91728 14.9597 7.31595 14.9597 10.3959C14.9597 13.3079 14.3157 15.6693 13.0277 17.4799C11.7584 19.2719 9.99439 20.1679 7.73572 20.1679ZM7.73572 17.9839C9.24772 17.9839 10.4237 17.3026 11.2637 15.9399C12.1224 14.5773 12.5517 12.7293 12.5517 10.3959C12.5517 7.98795 12.1131 6.12128 11.2357 4.79595C10.3584 3.45195 9.19172 2.77995 7.73572 2.77995C6.22372 2.77995 5.03839 3.47061 4.17972 4.85195C3.33972 6.21461 2.91972 8.06261 2.91972 10.3959C2.91972 12.7853 3.35839 14.6519 4.23572 15.9959C5.13172 17.3213 6.29839 17.9839 7.73572 17.9839Z" fill="#1E285A"/>
<path d="M21.8523 3.59195L18.0163 6.50395L16.8683 4.73995L22.2443 0.763947H24.2043V19.9999H21.8523V3.59195Z" fill="#1E285A"/>
</svg>
