<svg width="30" height="21" viewBox="0 0 30 21" fill="none" xmlns="http://www.w3.org/2000/svg">
<path d="M7.73572 20.1679C12.3277 20.1679 14.9597 16.0799 14.9597 10.3959C14.9597 4.09595 11.9077 0.595947 7.73572 0.595947C3.17172 0.595947 0.511719 4.68395 0.511719 10.3959C0.511719 16.6679 3.56372 20.1679 7.73572 20.1679ZM7.73572 17.9839C4.90772 17.9839 2.91972 15.2679 2.91972 10.3959C2.91972 5.77595 4.68372 2.77995 7.73572 2.77995C10.5917 2.77995 12.5517 5.49595 12.5517 10.3959C12.5517 14.9879 10.8157 17.9839 7.73572 17.9839Z" fill="#1E285A"/>
<path d="M23.6163 20.1679C27.1723 20.1679 29.8323 18.0399 29.8323 14.8479C29.8323 12.5519 28.5443 10.8159 26.5003 10.0319V9.94795C28.3203 9.16395 29.3283 7.42795 29.3283 5.63595C29.3283 2.44395 26.6963 0.595947 23.4203 0.595947C20.6483 0.595947 18.6883 1.88395 17.6803 3.64795L19.5843 4.71195C20.3403 3.59195 21.4603 2.77995 23.3643 2.77995C25.3803 2.77995 26.9483 4.03995 26.9483 5.94395C26.9483 7.48395 25.9403 9.02395 23.4763 9.02395H21.6003V11.0399H23.1963C26.0523 11.0399 27.4243 12.6639 27.4243 14.5119C27.4243 16.6119 25.6883 17.9839 23.4483 17.9839C21.2083 17.9839 19.7523 16.9759 19.0803 15.4359L17.0363 16.3599C17.9883 18.5719 20.3403 20.1679 23.6163 20.1679Z" fill="#1E285A"/>
</svg>
