<svg width="17" height="21" viewBox="0 0 17 21" fill="none" xmlns="http://www.w3.org/2000/svg">
<path d="M1.79178 4.75001C1.71892 4.74123 1.64508 4.75355 1.57901 4.7855C1.51295 4.81746 1.45745 4.8677 1.4191 4.93027C1.38075 4.99284 1.36117 5.0651 1.36268 5.13847C1.36419 5.21184 1.38672 5.28323 1.42761 5.34417L3.34428 8.58334L0.41178 13.7583C0.37393 13.8239 0.354004 13.8983 0.354004 13.974C0.354004 14.0497 0.37393 14.124 0.41178 14.1896C0.451515 14.2489 0.505968 14.2968 0.569805 14.3287C0.633643 14.3607 0.704675 14.3755 0.775947 14.3717H3.52636C3.68981 14.3657 3.84808 14.3128 3.98231 14.2193C4.11654 14.1259 4.22107 13.9958 4.28345 13.8446C4.28345 13.8446 7.15845 8.75584 7.26386 8.56417L5.3472 5.24834C5.27879 5.10387 5.172 4.98098 5.03848 4.89309C4.90496 4.80521 4.74986 4.75571 4.59011 4.75001H1.79178ZM13.4451 0.916672C13.2834 0.92022 13.1265 0.972404 12.9949 1.06642C12.8632 1.16044 12.763 1.29193 12.7072 1.44376L6.58345 12.3496L10.503 19.5563C10.5687 19.709 10.6767 19.8397 10.8142 19.9331C10.9518 20.0265 11.1131 20.0786 11.2793 20.0833H14.0393C14.1097 20.0882 14.1801 20.0748 14.2439 20.0446C14.3076 20.0144 14.3626 19.9684 14.4034 19.9108C14.4413 19.8453 14.4612 19.7709 14.4612 19.6952C14.4612 19.6195 14.4413 19.5451 14.4034 19.4796L10.503 12.3592L16.598 1.52042C16.6359 1.45486 16.6558 1.3805 16.6558 1.3048C16.6558 1.2291 16.6359 1.15473 16.598 1.08917C16.5565 1.03231 16.5015 0.986737 16.4379 0.956606C16.3743 0.926476 16.3041 0.912747 16.2339 0.916672H13.4451Z" fill="white"/>
</svg>
