<svg width="23" height="23" viewBox="0 0 23 23" fill="none" xmlns="http://www.w3.org/2000/svg">
<path fill-rule="evenodd" clip-rule="evenodd" d="M9.03621 8.59525H12.5955V10.3682C13.1082 9.3485 14.423 8.43233 16.3981 8.43233C20.1845 8.43233 21.0834 10.4621 21.0834 14.1862V21.0833H17.2501V15.0343C17.2501 12.9135 16.7374 11.7175 15.4321 11.7175C13.6218 11.7175 12.8695 13.0065 12.8695 15.0333V21.0833H9.03621V8.59525ZM2.463 20.9204H6.29633V8.43233H2.463V20.9204ZM6.84546 4.36038C6.8456 4.68168 6.78188 4.99981 6.65799 5.29627C6.53411 5.59273 6.35254 5.86162 6.12383 6.08729C5.66038 6.54789 5.03307 6.80571 4.37966 6.80413C3.72741 6.80369 3.10155 6.54653 2.63741 6.08825C2.40953 5.86181 2.22858 5.59262 2.10491 5.29612C1.98125 4.99962 1.9173 4.68163 1.91675 4.36038C1.91675 3.71158 2.1755 3.09058 2.63837 2.6325C3.1021 2.17361 3.72823 1.91634 4.38062 1.91663C5.03421 1.91663 5.66096 2.17442 6.12383 2.6325C6.58575 3.09058 6.84546 3.71158 6.84546 4.36038Z" fill="white"/>
</svg>
