<svg width="17" height="18" viewBox="0 0 17 18" fill="none" xmlns="http://www.w3.org/2000/svg">
<path fill-rule="evenodd" clip-rule="evenodd" d="M7.5 1.95664C4.12849 1.95664 1.39535 4.61017 1.39535 7.88348C1.39535 11.1568 4.12849 13.8103 7.5 13.8103C10.8715 13.8103 13.6047 11.1568 13.6047 7.88348C13.6047 4.61017 10.8715 1.95664 7.5 1.95664ZM0 7.88348C0 3.86199 3.35786 0.601929 7.5 0.601929C11.6421 0.601929 15 3.86199 15 7.88348C15 11.905 11.6421 15.165 7.5 15.165C3.35786 15.165 0 11.905 0 7.88348Z" fill="#1E285A"/>
<path fill-rule="evenodd" clip-rule="evenodd" d="M12.1905 12.4374C12.4445 12.1908 12.8563 12.1908 13.1103 12.4374L16.8095 16.0288C17.0635 16.2754 17.0635 16.6753 16.8095 16.9219C16.5555 17.1685 16.1437 17.1685 15.8897 16.9219L12.1905 13.3304C11.9365 13.0838 11.9365 12.684 12.1905 12.4374Z" fill="#1E285A"/>
</svg>
