<svg width="17" height="17" viewBox="0 0 17 17" fill="none" xmlns="http://www.w3.org/2000/svg">
<path fill-rule="evenodd" clip-rule="evenodd" d="M7.5 1.39535C4.12849 1.39535 1.39535 4.12849 1.39535 7.5C1.39535 10.8715 4.12849 13.6047 7.5 13.6047C10.8715 13.6047 13.6047 10.8715 13.6047 7.5C13.6047 4.12849 10.8715 1.39535 7.5 1.39535ZM0 7.5C0 3.35786 3.35786 0 7.5 0C11.6421 0 15 3.35786 15 7.5C15 11.6421 11.6421 15 7.5 15C3.35786 15 0 11.6421 0 7.5Z" fill="white"/>
<path fill-rule="evenodd" clip-rule="evenodd" d="M12.1905 12.1905C12.4445 11.9365 12.8563 11.9365 13.1103 12.1905L16.8095 15.8897C17.0635 16.1437 17.0635 16.5555 16.8095 16.8095C16.5555 17.0635 16.1437 17.0635 15.8897 16.8095L12.1905 13.1103C11.9365 12.8563 11.9365 12.4445 12.1905 12.1905Z" fill="white"/>
</svg>
